<svg xmlns="http://www.w3.org/2000/svg" width="111" height="111" viewBox="0 0 111 111" fill="none">
  <path d="M55.5 0C24.8469 0 0 24.8469 0 55.5C0 86.1531 24.8469 111 55.5 111C86.1531 111 111 86.1531 111 55.5C111 24.8469 86.1531 0 55.5 0ZM55.5 102.328C29.6368 102.328 8.67188 81.3632 8.67188 55.5C8.67188 29.6368 29.6368 8.67188 55.5 8.67188C81.3632 8.67188 102.328 29.6368 102.328 55.5C102.328 81.3632 81.3632 102.328 55.5 102.328Z" fill="white"/>
  <path d="M41.625 72.8438L76.3125 55.5L41.625 38.1562V72.8438Z" fill="white"/>
</svg>
